<?xml version="1.0" encoding="utf-8"?>
<!-- Generator: Adobe Illustrator 18.1.1, SVG Export Plug-In . SVG Version: 6.00 Build 0)  -->
<!DOCTYPE svg PUBLIC "-//W3C//DTD SVG 1.1//EN" "http://www.w3.org/Graphics/SVG/1.1/DTD/svg11.dtd">
<svg version="1.1" id="Calque_1" xmlns="http://www.w3.org/2000/svg" xmlns:xlink="http://www.w3.org/1999/xlink" x="0px" y="0px"
	 viewBox="0 0 180.7 106.3" enable-background="new 0 0 180.7 106.3" xml:space="preserve">
<g>
	<path fill="#1D1D1B" d="M88.2,28.2c0,1.4,0.9,2.2,2.3,2.2c1.1,0,2.2-0.8,3.1-1.8l0-3.8C89.8,25.4,88.2,26.1,88.2,28.2z"/>
	<path fill="#1D1D1B" d="M99.4,88.7c0,1.4,0.9,2.2,2.3,2.2c1.1,0,2.2-0.8,3.1-1.8l0-3.8C101,85.9,99.4,86.6,99.4,88.7z"/>
	<path fill="#1D1D1B" d="M27.2,16.7c0-3.1-2.9-3.1-4.3-3.1c-1.3,0-2.2,0.1-2.2,0.1l0,6.7h2C25.8,20.3,27.2,18.9,27.2,16.7z"/>
	<path fill="#1D1D1B" d="M86.9,49.2c-2,0-3.3,2-3.6,3.8l6.6,0C90.1,51,89.1,49.2,86.9,49.2z"/>
	<path fill="#1D1D1B" d="M53.2,79.5c-2,0-3.3,2-3.6,3.8l6.6,0C56.3,81.2,55.4,79.5,53.2,79.5z"/>
	<path fill="#1D1D1B" d="M27.4,26.4c0-2.4-1.1-3.5-4.6-3.5h-2.1l0,7.1c0,0,1.4,0,2.2,0C25.5,29.9,27.4,28.7,27.4,26.4z"/>
	<path fill="#1D1D1B" d="M143.5,58.4c0,1.4,0.9,2.2,2.3,2.2c1.1,0,2.2-0.8,3.1-1.8l0-3.8C145.1,55.7,143.5,56.4,143.5,58.4z"/>
	<path fill="#1D1D1B" d="M37.3,28.2c0,1.4,0.9,2.2,2.3,2.2c1.1,0,2.2-0.8,3.1-1.8l0-3.8C38.9,25.4,37.3,26.1,37.3,28.2z"/>
	<path fill="#1D1D1B" d="M0,0v106.3h180.7V0H0z M148,41.6h3.1v3.1H148V41.6z M142.8,41.6h3.1v3.1h-3.1V41.6z M132.6,23.2h8.8v2.5
		h-8.8V23.2z M102.1,17.1h3.2l-0.1,10.3c0,1.8,0.8,2.4,2.4,2.4c1.4,0,2.7-1,3.8-2.4l0.1-10.4h3.2l-0.1,15.2h-3c0-1,0.1-2.1,0.1-2.4
		c-1.4,1.5-3.1,2.7-5.2,2.7c-3.4,0-4.5-2-4.4-4.6L102.1,17.1z M104,47c0.4,0,0.8,0.1,1.2,0.2l-0.7,2.9c-0.3-0.1-0.6-0.1-0.9-0.1
		c-1.2,0-2.5,0.9-3.5,2.9l-0.1,9.7h-3.1L97,47.3h3c0,0,0,1.8-0.1,3C100.8,48.6,102,47,104,47z M69,9.5h3.2c0,3.3,0.1,6.6-0.2,9.8
		c1.2-1.4,3.2-2.6,5.1-2.6c3,0,4.4,1.7,4.4,4.7l-0.1,10.9h-3.2l0.1-10.5c0-1.5-0.8-2.2-2.3-2.2c-1.5,0-3,1.3-3.9,2.4L72,32.3h-3.2
		L69,9.5z M46.3,49.8c-1.4,0-2.7,1-3.8,2.4l-0.1,10.4h-3.1l0.1-15.2h3c0,1-0.1,2-0.1,2.4c1.4-1.5,3.1-2.7,5.2-2.7
		c3.4,0,4.5,2,4.4,4.6l-0.1,11h-3.1l0.1-10.4C48.8,50.4,47.9,49.8,46.3,49.8z M40.9,19.2c-1,0-2.3,0.3-4.2,2.1l-1.5-1.7
		c2.1-2.1,4.7-2.8,6.6-2.8c2.4,0,4.2,1.5,4.2,4.1l-0.1,7.7c0,1.3,0.1,1.7,0.9,1.7c0.4,0,0.7-0.1,1.2-0.5l0.9,1.6
		c-1.4,0.8-2.5,1.2-3.3,1.2c-1.3,0-2.4-0.7-2.5-2.3c-1.1,1.3-2.6,2.3-4.3,2.3c-2.8,0-4.5-1.6-4.5-4.4c0-3.5,3.4-4.6,8.5-5.4
		c0-0.3,0-1.4,0-1.4C42.8,19.8,42.1,19.2,40.9,19.2z M17.6,11.3c0,0,4.3-0.2,5.5-0.2c3.1,0,7.5,0.5,7.5,5.4c0,3.7-2.8,4.4-3.9,4.9
		c2.6,0.4,4.1,2.4,4.1,5c0,4.3-3.8,6-8.1,6c-1.4,0-5.4-0.1-5.4-0.1L17.6,11.3z M17.2,41.6h3.2l-0.1,13.6c0,3.3,1.7,5.1,5,5.1
		c3.5,0,5.2-2.1,5.3-5.5l0.2-13.2h3l-0.1,13.3c-0.1,5.4-3.2,8-8.4,8c-5.3,0-8.1-2.7-8-8.1L17.2,41.6z M38.4,92.8h-3.5l-4.6-14.5
		c-0.4-1.3-0.7-3.4-0.7-3.4s-0.3,2.1-0.8,3.6l-4.3,14.3h-3.5l-6.6-20.5l3.2-0.8l4.3,14.2c0.7,2.3,1,4.1,1,4.1s0.4-2.5,0.9-4.1
		L28,71.8h3.5l4.4,13.7c0.7,2.3,1,4.3,1,4.3s0.2-1.7,0.9-4.1l4.4-14.3l2.9,0.7L38.4,92.8z M59.2,85.4l-9.8,0
		c-0.1,2.4,0.7,5.3,3.8,5.3c1.4,0,2.4-0.6,3.5-1.6l1.7,1.8c-1.8,1.5-3.3,2.3-5.6,2.3c-3.9,0-6.7-2-6.7-7.8c0-4.1,2.6-8.1,7.3-8.1
		c4.3,0,5.8,3.1,5.8,7.2C59.2,84.8,59.2,85.1,59.2,85.4z M60.1,62.6H57l0.1-15.2h3.1L60.1,62.6z M60.4,44.7H57v-3.2h3.4V44.7z
		 M55.6,32.6c-3.4,0-4.5-2-4.4-4.6l0.1-11h3.2l-0.1,10.3c0,1.8,0.8,2.4,2.4,2.4c1.4,0,2.7-1,3.8-2.4l0.1-10.4h3.2l-0.1,15.2h-3
		c0-1,0.1-2.1,0.1-2.4C59.3,31.5,57.7,32.6,55.6,32.6z M66.2,92.8h-3.1l0.1-15.2h3.1L66.2,92.8z M66.5,75h-3.4v-3.2h3.4V75z
		 M63.4,47.8l3.1-0.8l2.7,7.9c0.8,2.5,1.3,4.4,1.3,4.4s0.4-1.5,1.4-4.1L75,47l2.8,0.8l-6,14.8h-3L63.4,47.8z M92.6,92.8h-3.1
		l0.1-10.6c0-1.4-0.8-2.1-2.1-2.1c-1.4,0-2.8,1.3-3.7,2.4l-0.1,10.3h-3.1l0.1-10.6c0-1.4-0.9-2.1-2.1-2.1c-1.4,0-2.8,1.2-3.7,2.4
		l-0.1,10.4h-3.1l0.1-15.2h3c0,0.7-0.1,2.3-0.1,2.4c0.2-0.2,2-2.8,5-2.8c1.8,0,3.4,0.9,3.8,2.7c1.2-1.5,3.1-2.7,5-2.7
		c3.3,0,4.4,2.1,4.3,4.5L92.6,92.8z M92.9,55.1l-9.8,0c-0.1,2.5,0.7,5.3,3.8,5.3c1.4,0,2.5-0.6,3.5-1.6l1.7,1.8
		c-1.8,1.5-3.3,2.3-5.6,2.3c-3.9,0-6.7-2-6.7-7.8c0-4.1,2.6-8.1,7.3-8.1c4.3,0,5.8,3.1,5.8,7.2C92.9,54.5,92.9,54.8,92.9,55.1z
		 M93.9,30.4c-1.1,1.3-2.6,2.3-4.3,2.3c-2.8,0-4.5-1.6-4.5-4.4c0-3.5,3.4-4.6,8.5-5.4c0-0.3,0-1.4,0-1.4c0-1.6-0.7-2.2-1.9-2.2
		c-1,0-2.3,0.3-4.2,2.1L86,19.6c2.1-2.1,4.7-2.8,6.6-2.8c2.4,0,4.2,1.5,4.2,4.1l-0.1,7.7c0,1.3,0.1,1.7,0.9,1.7
		c0.4,0,0.7-0.1,1.2-0.5l0.9,1.6c-1.4,0.8-2.4,1.2-3.3,1.2C95,32.6,94,31.9,93.9,30.4z M107.6,93.2c-1.3,0-2.4-0.7-2.5-2.3
		c-1.1,1.3-2.6,2.3-4.3,2.3c-2.8,0-4.5-1.6-4.5-4.4c0-3.5,3.4-4.6,8.5-5.4c0-0.3,0-1.4,0-1.4c0-1.6-0.7-2.2-1.9-2.2
		c-1,0-2.3,0.3-4.2,2.1l-1.5-1.7c2.1-2.1,4.7-2.8,6.6-2.8c2.4,0,4.2,1.5,4.2,4.1l-0.1,7.7c0,1.3,0.1,1.7,0.9,1.7
		c0.4,0,0.7-0.2,1.2-0.5l0.9,1.6C109.5,92.8,108.4,93.2,107.6,93.2z M106.7,61.6l1.2-2.1c1.1,0.6,2.2,1.1,3.5,1.1
		c1.2,0,2.8-0.7,2.8-2.1c0-3.2-7.2-1.5-7.2-7c0-3,2.8-4.5,5.7-4.5c1.7,0,3.7,0.4,4.9,1.2l-1.2,2c-0.9-0.5-2.2-0.9-3.3-0.9
		c-1.4,0-2.8,0.4-2.8,1.9c0,3.1,7.3,1.6,7.3,7c0,3-3.1,4.7-5.7,4.7C109.9,62.9,108.2,62.5,106.7,61.6z M120.9,80.3
		c-0.3-0.1-0.6-0.1-0.9-0.1c-1.2,0-2.5,0.9-3.5,2.9l-0.1,9.7h-3.1l0.1-15.2h3c0,0,0,1.8-0.1,3c0.9-1.7,2.1-3.3,4.1-3.3
		c0.4,0,0.8,0.1,1.2,0.2L120.9,80.3z M124.8,62.6h-3.1l0.1-15.2h3.1L124.8,62.6z M125.1,44.7h-3.4v-3.2h3.4V44.7z M123.5,32.6
		c-1.8,0-3.5-0.4-5-1.3l1.2-2.1c1.1,0.6,2.2,1.1,3.5,1.1c1.2,0,2.8-0.7,2.8-2.1c0-3.2-7.2-1.5-7.2-7c0-3,2.8-4.5,5.7-4.5
		c1.7,0,3.7,0.4,4.9,1.2l-1.2,2c-0.9-0.5-2.2-0.9-3.3-0.9c-1.4,0-2.8,0.4-2.8,1.9c0,3.1,7.3,1.6,7.3,7
		C129.2,31,126.2,32.6,123.5,32.6z M135.2,62.9c-3,0-4.4-1.2-4.4-4.5l0.1-8.7h-2.5v-2.4h2.5l0-5.4h3.1l0,5.4h4.5v2.4h-4.6l0,8.8
		c0,1.6,0.9,2.1,1.8,2.1c0.7,0,1.5-0.4,2.1-0.8l1.1,1.8C137.9,62.3,136.6,62.9,135.2,62.9z M151.7,62.9c-1.3,0-2.4-0.7-2.4-2.3
		c-1.1,1.3-2.6,2.3-4.3,2.3c-2.8,0-4.5-1.6-4.5-4.4c0-3.5,3.4-4.6,8.5-5.4c0-0.3,0-1.4,0-1.4c0-1.6-0.7-2.2-1.9-2.2
		c-1,0-2.3,0.3-4.2,2.1l-1.5-1.7c2.1-2.1,4.7-2.8,6.6-2.8c2.4,0,4.2,1.5,4.2,4.1l-0.1,7.7c0,1.3,0.1,1.7,0.9,1.7
		c0.4,0,0.7-0.2,1.2-0.5l0.9,1.6C153.6,62.5,152.5,62.9,151.7,62.9z M162.4,62.9c-3,0-4.4-1.2-4.4-4.5l0.1-8.7h-2.5v-2.4h2.5l0-5.4
		h3.1l0,5.4h4.5v2.4h-4.6l0,8.8c0,1.6,0.9,2.1,1.8,2.1c0.7,0,1.5-0.4,2.1-0.8l1.1,1.8C165,62.3,163.7,62.9,162.4,62.9z"/>
</g>
</svg>
