<?xml version="1.0" encoding="utf-8"?>
<!-- Generator: Adobe Illustrator 18.1.1, SVG Export Plug-In . SVG Version: 6.00 Build 0)  -->
<!DOCTYPE svg PUBLIC "-//W3C//DTD SVG 1.1//EN" "http://www.w3.org/Graphics/SVG/1.1/DTD/svg11.dtd">
<svg version="1.1" id="Calque_1" xmlns="http://www.w3.org/2000/svg" xmlns:xlink="http://www.w3.org/1999/xlink" x="0px" y="0px"
	 viewBox="0 0 180.5 80.8" enable-background="new 0 0 180.5 80.8" xml:space="preserve">
<g>
	<polygon fill="#1D1D1B" points="0,0.7 29.6,0.7 29.6,9.1 10.8,9.1 10.8,19.4 28.8,19.4 28.8,27.8 10.8,27.8 10.8,39.7 30,39.7 
		30,48.1 0,48.1 0,0.7 	"/>
	<path fill="#1D1D1B" d="M63.8,2.6v9.9C60.6,10.1,57.3,9,54,9c-1.9,0-3.5,0.5-4.7,1.3c-1.2,0.9-1.8,2.1-1.8,3.6
		c0,1.4,0.5,2.6,1.4,3.5c0.9,0.9,3,2.2,6.4,4c3.4,1.8,5.9,3.7,7.5,5.9c1.7,2.1,2.5,4.7,2.5,7.6c0,4.1-1.6,7.4-4.8,10
		c-3.2,2.6-7.3,3.9-12.3,3.9c-3.7,0-7.6-0.9-11.8-2.6V35.8c4.3,2.8,7.9,4.2,11,4.2c2,0,3.6-0.5,4.8-1.5c1.3-1,1.9-2.2,1.9-3.7
		c0-1.3-0.4-2.4-1.3-3.3c-0.9-0.9-3.1-2.2-6.5-4c-3.5-1.8-6-3.7-7.5-5.7c-1.6-2-2.4-4.5-2.4-7.5C36.5,10.1,38,6.6,41,4
		c3-2.7,7-4,11.8-4c1.9,0,3.6,0.2,5,0.5C59.3,0.8,61.2,1.5,63.8,2.6"/>
	<polygon fill="#1D1D1B" points="71.8,0.7 99.7,0.7 99.7,9.1 82.5,9.1 82.5,20 99.2,20 99.2,28.4 82.5,28.4 82.5,48.1 71.8,48.1 
		71.8,0.7 	"/>
	<path fill="#1D1D1B" d="M179,63.5l-6.1-7.3h-1.3v9.6h1.4v-7.3l6.2,7.3h1.2v-9.6H179V63.5L179,63.5z M163.6,65.8h5.5v-1.3H165v-2.9
		h3.8v-1.3H165v-2.8h4v-1.3h-5.4V65.8L163.6,65.8z M157.6,62.3h1.8v1.8c-0.8,0.3-1.4,0.4-2,0.4c-1.1,0-2-0.3-2.7-1
		c-0.7-0.7-1-1.5-1-2.6c0-1,0.3-1.9,1.1-2.6c0.7-0.7,1.5-1,2.5-1c0.6,0,1.1,0.1,1.6,0.2c0.5,0.2,1.1,0.4,1.8,0.8v-1.5
		c-1.2-0.6-2.3-0.8-3.4-0.8c-1.5,0-2.7,0.5-3.7,1.4c-1,0.9-1.4,2.1-1.4,3.6c0,1.4,0.5,2.5,1.4,3.4c1,0.9,2.2,1.4,3.7,1.4
		c1.1,0,2.3-0.3,3.5-0.8v-4h-3.2V62.3L157.6,62.3z M148.2,63.5l-6.1-7.3h-1.3v9.6h1.4v-7.3l6.2,7.3h1.3v-9.6h-1.4V63.5L148.2,63.5z
		 M137.9,56.2h-1.4v9.6h1.4V56.2L137.9,56.2z M128.6,57.5h1c0.5,0,0.9,0.1,1.2,0.4c0.3,0.3,0.4,0.6,0.4,1c0,1-0.6,1.5-1.8,1.5h-0.8
		V57.5L128.6,57.5z M127.2,65.8h1.4v-4.2c0.7,0,1.3,0.1,1.6,0.4c0.4,0.3,0.9,1,1.6,2.2l0.7,1.2l0.2,0.4h1.7
		c-0.2-0.2-0.3-0.4-0.4-0.5c-0.1-0.1-0.2-0.3-0.3-0.4l-0.2-0.4l-0.5-0.7c-0.1-0.1-0.2-0.3-0.4-0.6c-0.2-0.3-0.4-0.6-0.6-0.8
		c-0.2-0.2-0.3-0.4-0.5-0.6c-0.1-0.2-0.3-0.3-0.5-0.5c0.5-0.2,0.9-0.5,1.1-0.9c0.3-0.4,0.4-0.9,0.4-1.4c0-0.9-0.3-1.5-0.8-2
		c-0.6-0.5-1.3-0.7-2.3-0.7h-2.4V65.8L127.2,65.8z M121,54.2c-0.1,0.2-0.2,0.3-0.2,0.6c0,0.2,0.1,0.4,0.2,0.6
		c0.2,0.2,0.3,0.2,0.6,0.2c0.2,0,0.4-0.1,0.6-0.2c0.2-0.2,0.2-0.3,0.2-0.6c0-0.2-0.1-0.4-0.2-0.6c-0.2-0.2-0.3-0.2-0.6-0.2
		C121.3,54,121.1,54,121,54.2 M118.3,54.2c-0.2,0.2-0.2,0.3-0.2,0.6c0,0.2,0.1,0.4,0.2,0.6c0.2,0.2,0.4,0.2,0.6,0.2
		c0.2,0,0.4-0.1,0.6-0.2c0.2-0.2,0.2-0.3,0.2-0.6c0-0.2-0.1-0.4-0.2-0.6c-0.1-0.2-0.3-0.2-0.6-0.2C118.7,54,118.5,54,118.3,54.2
		 M116.2,62.1c0,1.3,0.4,2.2,1.1,2.9c0.8,0.6,1.7,1,2.9,1c1.2,0,2.1-0.3,2.7-0.8c0.6-0.5,1-1,1.1-1.4c0.2-0.4,0.2-1,0.2-1.7v-5.9
		h-1.4v5.9c0,0.5-0.1,0.9-0.1,1.1c-0.1,0.3-0.3,0.6-0.7,0.9c-0.4,0.3-1,0.5-1.8,0.5c-0.8,0-1.4-0.2-1.8-0.5
		c-0.4-0.3-0.6-0.6-0.7-0.9c-0.1-0.3-0.1-0.6-0.1-1.1v-5.9h-1.4V62.1L116.2,62.1z M106.6,56.2h-1.4v9.6h1.4v-4.2h5.2v4.2h1.4v-9.6
		h-1.4v4.1h-5.2V56.2L106.6,56.2z M95.2,57.5h3.3v8.3h1.4v-8.3h3.3v-1.3h-7.9V57.5L95.2,57.5z M83.7,57.5h1c0.5,0,0.9,0.1,1.2,0.4
		c0.3,0.3,0.4,0.6,0.4,1c0,1-0.6,1.5-1.8,1.5h-0.8V57.5L83.7,57.5z M82.3,65.8h1.4v-4.2c0.7,0,1.2,0.1,1.6,0.4
		c0.4,0.3,0.9,1,1.6,2.2l0.7,1.2l0.2,0.4h1.7c-0.2-0.2-0.3-0.4-0.4-0.5c-0.1-0.1-0.2-0.3-0.3-0.4l-0.2-0.4l-0.5-0.7
		c-0.1-0.1-0.2-0.3-0.4-0.6c-0.2-0.3-0.4-0.6-0.6-0.8c-0.2-0.2-0.3-0.4-0.5-0.6c-0.1-0.2-0.3-0.3-0.5-0.5c0.5-0.2,0.9-0.5,1.1-0.9
		c0.3-0.4,0.4-0.9,0.4-1.4c0-0.9-0.3-1.5-0.8-2c-0.6-0.5-1.3-0.7-2.3-0.7h-2.4V65.8L82.3,65.8z M76.1,54.2c-0.2,0.2-0.2,0.3-0.2,0.6
		c0,0.2,0.1,0.4,0.2,0.6c0.2,0.2,0.4,0.2,0.6,0.2c0.2,0,0.4-0.1,0.6-0.2c0.2-0.2,0.2-0.3,0.2-0.6c0-0.2-0.1-0.4-0.2-0.6
		C77.1,54,76.9,54,76.7,54C76.4,54,76.2,54,76.1,54.2 M73.4,54.2c-0.2,0.2-0.2,0.3-0.2,0.6c0,0.2,0.1,0.4,0.2,0.6
		c0.2,0.2,0.4,0.2,0.6,0.2c0.2,0,0.4-0.1,0.6-0.2c0.2-0.2,0.2-0.3,0.2-0.6c0-0.2-0.1-0.4-0.2-0.6C74.4,54,74.2,54,74,54
		C73.7,54,73.6,54,73.4,54.2 M71.3,62.1c0,1.3,0.4,2.2,1.1,2.9c0.8,0.6,1.7,1,2.9,1c1.2,0,2.1-0.3,2.7-0.8c0.6-0.5,1-1,1.1-1.4
		c0.2-0.4,0.2-1,0.2-1.7v-5.9h-1.4v5.9c0,0.5,0,0.9-0.1,1.1c-0.1,0.3-0.3,0.6-0.7,0.9c-0.4,0.3-1,0.5-1.8,0.5
		c-0.8,0-1.4-0.2-1.8-0.5c-0.4-0.3-0.6-0.6-0.7-0.9c-0.1-0.3-0.1-0.6-0.1-1.1v-5.9h-1.4V62.1L71.3,62.1z M63.8,65.8h1.4v-4.4h3.7
		v-1.3h-3.7v-2.6h3.7v-1.3h-5.1V65.8L63.8,65.8z M51.1,61.7l1.3-3.3l1.4,3.3H51.1L51.1,61.7z M55.7,65.8h1.5L53,56.2h-1.1l-4,9.6
		l1.5,0l1.2-2.8h3.9L55.7,65.8L55.7,65.8z M42.1,57.5h1.4c1.1,0,1.7,0.5,1.7,1.4c0,0.9-0.6,1.4-1.7,1.4h-1.4V57.5L42.1,57.5z
		 M40.6,65.8h1.4v-4.2h1.4c1,0,1.8-0.2,2.3-0.7c0.6-0.5,0.9-1.1,0.9-2c0-1-0.3-1.7-0.8-2c-0.5-0.3-0.9-0.5-1.2-0.6
		c-0.3-0.1-0.7-0.1-1.3-0.1h-2.7V65.8L40.6,65.8z M35.6,58.4c0.7,0.6,1,1.5,1,2.5c0,1.1-0.3,1.9-1,2.6c-0.7,0.6-1.5,1-2.6,1
		c-1.1,0-2-0.3-2.6-1c-0.7-0.7-1-1.5-1-2.6c0-1.1,0.3-1.9,1-2.5c0.7-0.7,1.5-1,2.6-1C34.1,57.4,35,57.8,35.6,58.4 M29.4,57.5
		c-1,0.9-1.4,2.1-1.4,3.5c0,1.4,0.5,2.6,1.4,3.5c1,0.9,2.2,1.4,3.7,1.4c1.5,0,2.7-0.5,3.7-1.4c1-0.9,1.4-2.1,1.4-3.5
		c0-1.4-0.5-2.6-1.4-3.5c-1-0.9-2.2-1.4-3.7-1.4C31.5,56.1,30.3,56.6,29.4,57.5 M20.5,57.5h1c0.5,0,0.9,0.1,1.2,0.4
		c0.3,0.3,0.4,0.6,0.4,1c0,1-0.6,1.5-1.8,1.5h-0.8V57.5L20.5,57.5z M19.1,65.8h1.4v-4.2c0.7,0,1.3,0.1,1.6,0.4
		c0.4,0.3,0.9,1,1.6,2.2l0.7,1.2l0.2,0.4h1.7c-0.2-0.2-0.3-0.4-0.4-0.5c-0.1-0.1-0.2-0.3-0.3-0.4l-0.2-0.4l-0.5-0.7
		c-0.1-0.1-0.2-0.3-0.4-0.6c-0.2-0.3-0.4-0.6-0.6-0.8c-0.2-0.2-0.3-0.4-0.5-0.6c-0.1-0.2-0.3-0.3-0.5-0.5c0.5-0.2,0.9-0.5,1.1-0.9
		c0.3-0.4,0.4-0.9,0.4-1.4c0-0.9-0.3-1.5-0.8-2c-0.6-0.5-1.3-0.7-2.3-0.7h-2.4V65.8L19.1,65.8z M8.1,62.1c0,1.3,0.4,2.2,1.1,2.8
		c0.8,0.6,1.7,1,2.9,1c1.2,0,2.1-0.3,2.7-0.8c0.6-0.5,1-1,1.1-1.4c0.2-0.4,0.2-1,0.2-1.7v-5.9h-1.4v5.9c0,0.5,0,0.9-0.1,1.1
		c-0.1,0.3-0.3,0.6-0.7,0.9c-0.4,0.3-1,0.5-1.8,0.5c-0.8,0-1.4-0.2-1.8-0.5c-0.4-0.3-0.6-0.6-0.7-0.9c-0.1-0.3-0.1-0.6-0.1-1.1v-5.9
		H8.1V62.1L8.1,62.1z M0.1,65.8h5.5v-1.3H1.6v-2.9h3.8v-1.3H1.6v-2.8h3.9v-1.3H0.1V65.8L0.1,65.8z"/>
	<path fill="#1D1D1B" d="M5.8,65.9H0v-9.9h5.7v1.6h-4v2.5h3.8v1.6H1.7v2.6h4.1V65.9L5.8,65.9z M0.3,65.6h5.2v-1H1.4v-3.2h3.8v-1H1.4
		v-3.1h3.9v-1H0.3V65.6L0.3,65.6z"/>
	<path fill="#1D1D1B" d="M12.1,66c-1.2,0-2.2-0.3-3-1c-0.8-0.7-1.2-1.7-1.2-3v-6h1.7v6c0,0.5,0,0.8,0.1,1.1c0.1,0.2,0.3,0.5,0.6,0.8
		c0.3,0.3,0.9,0.5,1.7,0.5c0.8,0,1.3-0.2,1.7-0.5c0.3-0.3,0.6-0.6,0.7-0.8c0.1-0.2,0.1-0.6,0.1-1.1v-6h1.7v6c0,0.7-0.1,1.3-0.3,1.7
		c-0.2,0.5-0.6,0.9-1.2,1.5C14.3,65.8,13.4,66,12.1,66 M8.2,56.4v5.7c0,1.2,0.4,2.1,1.1,2.7c0.7,0.6,1.7,0.9,2.8,0.9
		c1.1,0,2-0.2,2.6-0.7c0.6-0.5,0.9-0.9,1.1-1.3c0.2-0.4,0.2-1,0.2-1.6v-5.7h-1.1v5.7c0,0.5,0,0.9-0.1,1.2c-0.1,0.3-0.3,0.6-0.7,1
		c-0.4,0.4-1,0.6-1.9,0.6c-0.9,0-1.5-0.2-1.9-0.6c-0.4-0.4-0.6-0.7-0.7-1c-0.1-0.3-0.2-0.7-0.2-1.2v-5.7H8.2L8.2,56.4z"/>
	<path fill="#1D1D1B" d="M26.8,65.9h-2.1l-0.3-0.4l-0.7-1.2c-0.7-1.1-1.3-1.9-1.6-2.1c-0.3-0.2-0.8-0.4-1.4-0.4v4.2H19v-9.9h2.5
		c1,0,1.9,0.2,2.4,0.7c0.6,0.5,0.9,1.2,0.9,2.1c0,0.6-0.1,1.1-0.4,1.5c-0.2,0.4-0.6,0.6-1,0.8c0.1,0.1,0.3,0.2,0.4,0.3
		c0.1,0.2,0.3,0.4,0.5,0.6c0.2,0.2,0.4,0.5,0.6,0.8c0.2,0.3,0.3,0.5,0.4,0.6l0.7,1.1c0.1,0.1,0.2,0.3,0.3,0.4
		c0.1,0.1,0.2,0.3,0.4,0.5L26.8,65.9L26.8,65.9z M24.8,65.6h1.3c-0.1-0.1-0.2-0.2-0.2-0.3c-0.1-0.1-0.2-0.3-0.3-0.4l-0.2-0.4
		l-0.5-0.7c-0.1-0.1-0.2-0.3-0.4-0.6c-0.2-0.3-0.4-0.6-0.6-0.8c-0.2-0.2-0.3-0.4-0.5-0.6c-0.1-0.1-0.3-0.3-0.5-0.4l-0.2-0.2L23,61
		c0.5-0.2,0.8-0.4,1.1-0.8c0.3-0.4,0.4-0.8,0.4-1.3c0-0.8-0.3-1.4-0.8-1.9c-0.5-0.4-1.3-0.7-2.2-0.7h-2.2v9.3h1.1v-4.2h0.1
		c0.8,0,1.3,0.2,1.7,0.5c0.4,0.3,0.9,1,1.7,2.2L24.8,65.6L24.8,65.6z"/>
	<path fill="#1D1D1B" d="M21.4,60.5h-1v-3.1h1.1c0.5,0,1,0.1,1.3,0.4c0.3,0.3,0.5,0.7,0.5,1.1C23.3,59.6,23,60.5,21.4,60.5
		 M20.7,60.2h0.7c1.1,0,1.7-0.4,1.7-1.3c0-0.4-0.1-0.7-0.4-0.9c-0.3-0.2-0.6-0.3-1.1-0.3h-0.8V60.2L20.7,60.2z"/>
	<path fill="#1D1D1B" d="M33,66c-1.5,0-2.8-0.5-3.8-1.4c-1-0.9-1.5-2.2-1.5-3.6c0-1.4,0.5-2.7,1.5-3.6c1-0.9,2.2-1.4,3.8-1.4
		c1.5,0,2.8,0.5,3.8,1.4c1,0.9,1.5,2.2,1.5,3.6c0,1.5-0.5,2.7-1.5,3.6C35.8,65.5,34.5,66,33,66 M33,56.2c-1.4,0-2.6,0.5-3.6,1.3
		c-0.9,0.9-1.4,2-1.4,3.4c0,1.4,0.5,2.5,1.4,3.4c0.9,0.9,2.1,1.3,3.6,1.3c1.4,0,2.6-0.4,3.6-1.3c0.9-0.9,1.4-2,1.4-3.4
		c0-1.4-0.5-2.5-1.4-3.4C35.7,56.7,34.5,56.2,33,56.2"/>
	<path fill="#1D1D1B" d="M33,64.7c-1.1,0-2-0.4-2.7-1c-0.7-0.7-1-1.6-1-2.7c0-1.1,0.3-2,1-2.7c0.7-0.7,1.6-1,2.7-1
		c1.1,0,2,0.3,2.7,1c0.7,0.7,1,1.6,1,2.7c0,1.1-0.4,2-1,2.7C35,64.3,34.1,64.7,33,64.7 M33,57.6c-1,0-1.9,0.3-2.5,0.9
		c-0.6,0.6-0.9,1.4-0.9,2.4c0,1,0.3,1.8,0.9,2.5c0.6,0.6,1.5,0.9,2.5,0.9c1,0,1.9-0.3,2.5-0.9c0.6-0.6,1-1.4,1-2.5
		c0-1-0.3-1.8-1-2.4C34.9,57.9,34,57.6,33,57.6"/>
	<path fill="#1D1D1B" d="M42.2,65.9h-1.7v-9.9h2.9c0.6,0,1,0,1.3,0.1c0.3,0.1,0.7,0.3,1.3,0.6c0.6,0.4,0.9,1.1,0.9,2.1
		c0,0.9-0.3,1.6-0.9,2.1c-0.6,0.5-1.4,0.7-2.4,0.7h-1.2V65.9L42.2,65.9z M40.8,65.6h1.1v-4.2h1.5c1,0,1.7-0.2,2.2-0.7
		c0.5-0.4,0.8-1.1,0.8-1.8c0-0.9-0.2-1.6-0.7-1.9c-0.5-0.3-0.9-0.5-1.2-0.6c-0.3-0.1-0.7-0.1-1.2-0.1h-2.6V65.6L40.8,65.6z"/>
	<path fill="#1D1D1B" d="M43.5,60.5h-1.5v-3.1h1.5c1.5,0,1.8,0.8,1.8,1.6C45.3,59.6,45,60.5,43.5,60.5 M42.2,60.2h1.2
		c1,0,1.5-0.4,1.5-1.3c0-0.9-0.5-1.3-1.5-1.3h-1.2V60.2L42.2,60.2z"/>
	<path fill="#1D1D1B" d="M49.5,65.9l-1.8,0l4.2-9.9h1.2l4.3,9.9l-1.8,0l-1.3-2.8h-3.7L49.5,65.9L49.5,65.9z M48.1,65.6l1.1,0
		l1.2-2.8h4.1l1.3,2.8l1.2,0l-4.1-9.3h-0.8L48.1,65.6L48.1,65.6z"/>
	<path fill="#1D1D1B" d="M54.1,61.8h-3.2l1.6-3.8L54.1,61.8L54.1,61.8z M51.3,61.5h2.3l-1.2-2.8L51.3,61.5L51.3,61.5z"/>
	<path fill="#1D1D1B" d="M65.4,65.9h-1.7v-9.9h5.4v1.6h-3.7v2.3H69v1.6h-3.7V65.9L65.4,65.9z M63.9,65.6h1.1v-4.4h3.7v-1h-3.7v-2.9
		h3.7v-1h-4.8V65.6L63.9,65.6z"/>
	<path fill="#1D1D1B" d="M75.3,66c-1.2,0-2.2-0.3-3-1c-0.8-0.7-1.2-1.7-1.2-3v-6h1.7v6c0,0.5,0,0.8,0.1,1.1c0.1,0.2,0.3,0.5,0.7,0.8
		c0.3,0.3,0.9,0.5,1.7,0.5c0.8,0,1.3-0.2,1.7-0.5c0.3-0.3,0.6-0.6,0.7-0.8c0.1-0.2,0.1-0.6,0.1-1.1v-6h1.7v6c0,0.7-0.1,1.3-0.3,1.7
		c-0.2,0.5-0.6,0.9-1.2,1.5C77.5,65.8,76.5,66,75.3,66 M71.4,56.4v5.7c0,1.2,0.4,2.1,1.1,2.7c0.7,0.6,1.7,0.9,2.8,0.9
		c1.1,0,2-0.2,2.6-0.7c0.6-0.5,0.9-0.9,1.1-1.3c0.2-0.4,0.2-1,0.2-1.6v-5.7h-1.1v5.7c0,0.5,0,0.9-0.2,1.2c-0.1,0.3-0.3,0.6-0.7,1
		c-0.4,0.4-1,0.6-1.9,0.6c-0.9,0-1.5-0.2-1.9-0.6c-0.4-0.4-0.6-0.7-0.7-1c-0.1-0.3-0.1-0.7-0.1-1.2v-5.7H71.4L71.4,56.4z"/>
	<path fill="#1D1D1B" d="M74,55.7c-0.3,0-0.5-0.1-0.7-0.3C73.1,55.3,73,55,73,54.8c0-0.3,0.1-0.5,0.3-0.7c0.2-0.2,0.4-0.3,0.7-0.3
		c0.3,0,0.5,0.1,0.7,0.3c0.2,0.2,0.3,0.4,0.3,0.7c0,0.3-0.1,0.5-0.3,0.7C74.5,55.6,74.3,55.7,74,55.7 M74,54.1
		c-0.2,0-0.4,0.1-0.5,0.2c-0.1,0.1-0.2,0.3-0.2,0.5c0,0.2,0.1,0.3,0.2,0.5c0.3,0.3,0.7,0.3,0.9,0c0.1-0.1,0.2-0.3,0.2-0.5
		c0-0.2-0.1-0.3-0.2-0.5C74.3,54.2,74.2,54.1,74,54.1"/>
	<path fill="#1D1D1B" d="M76.7,55.7c-0.3,0-0.5-0.1-0.7-0.3c-0.2-0.2-0.3-0.4-0.3-0.7c0-0.3,0.1-0.5,0.3-0.7
		c0.2-0.2,0.4-0.3,0.7-0.3c0.3,0,0.5,0.1,0.7,0.3c0.2,0.2,0.3,0.4,0.3,0.7c0,0.3-0.1,0.5-0.3,0.7C77.2,55.6,76.9,55.7,76.7,55.7
		 M76.7,54.1c-0.2,0-0.4,0.1-0.5,0.2c-0.1,0.1-0.2,0.3-0.2,0.5c0,0.2,0.1,0.3,0.2,0.5c0.3,0.3,0.7,0.3,0.9,0
		c0.1-0.1,0.2-0.3,0.2-0.5c0-0.2-0.1-0.3-0.2-0.5C77,54.2,76.9,54.1,76.7,54.1"/>
	<path fill="#1D1D1B" d="M89.9,65.9h-2.1l-0.3-0.4l-0.7-1.2c-0.7-1.1-1.3-1.9-1.6-2.1c-0.3-0.2-0.8-0.4-1.4-0.4v4.2h-1.7v-9.9h2.5
		c1,0,1.8,0.2,2.4,0.7c0.6,0.5,0.9,1.2,0.9,2.1c0,0.6-0.1,1.1-0.4,1.5c-0.2,0.4-0.6,0.6-1,0.8c0.1,0.1,0.3,0.2,0.4,0.3
		c0.1,0.2,0.3,0.4,0.5,0.6c0.2,0.2,0.4,0.5,0.6,0.8l0,0.1c0.2,0.3,0.3,0.5,0.3,0.6l0.7,1.1c0.1,0.1,0.2,0.3,0.3,0.4
		c0.1,0.1,0.2,0.3,0.4,0.5L89.9,65.9L89.9,65.9z M88,65.6h1.3c-0.1-0.1-0.2-0.2-0.2-0.3c-0.1-0.1-0.2-0.3-0.3-0.4l-0.2-0.4l-0.5-0.7
		c-0.1-0.1-0.2-0.3-0.3-0.6l0-0.1c-0.2-0.3-0.4-0.6-0.6-0.8c-0.2-0.2-0.3-0.4-0.5-0.6c-0.1-0.1-0.3-0.3-0.5-0.4L86,61.1l0.3-0.1
		c0.5-0.2,0.8-0.4,1.1-0.8c0.3-0.4,0.4-0.8,0.4-1.3c0-0.8-0.3-1.4-0.8-1.9c-0.5-0.4-1.3-0.7-2.2-0.7h-2.2v9.3h1.1v-4.2h0.1
		c0.7,0,1.3,0.2,1.7,0.5c0.4,0.3,0.9,1,1.7,2.2L88,65.6L88,65.6z"/>
	<path fill="#1D1D1B" d="M84.5,60.5h-0.9v-3.1h1.1c0.5,0,1,0.1,1.3,0.4c0.3,0.3,0.5,0.7,0.5,1.1C86.5,59.6,86.2,60.5,84.5,60.5
		 M83.9,60.2h0.7c1.1,0,1.7-0.4,1.7-1.3c0-0.4-0.1-0.7-0.4-0.9c-0.3-0.2-0.6-0.3-1.1-0.3h-0.8V60.2L83.9,60.2z"/>
	<path fill="#1D1D1B" d="M100,65.9h-1.7v-8.3h-3.3v-1.6h8.2v1.6H100V65.9L100,65.9z M98.6,65.6h1.1v-8.3h3.3v-1h-7.6v1h3.3V65.6
		L98.6,65.6z"/>
	<path fill="#1D1D1B" d="M113.4,65.9h-1.7v-4.2h-4.9v4.2H105v-9.9h1.7v4.1h4.9v-4.1h1.7V65.9L113.4,65.9z M112,65.6h1.1v-9.3H112
		v4.1h-5.5v-4.1h-1.1v9.3h1.1v-4.2h5.5V65.6L112,65.6z"/>
	<path fill="#1D1D1B" d="M120.2,66c-1.2,0-2.2-0.3-3-1c-0.8-0.7-1.2-1.7-1.2-3v-6h1.7v6c0,0.5,0,0.8,0.1,1.1
		c0.1,0.2,0.3,0.5,0.7,0.8c0.3,0.3,0.9,0.5,1.7,0.5c0.8,0,1.3-0.2,1.7-0.5c0.3-0.3,0.6-0.6,0.7-0.8c0.1-0.2,0.1-0.6,0.1-1.1v-6h1.7
		v6c0,0.7-0.1,1.3-0.3,1.7c-0.2,0.5-0.6,0.9-1.2,1.5C122.4,65.8,121.5,66,120.2,66 M116.3,56.4v5.7c0,1.2,0.4,2.1,1.1,2.7
		c0.7,0.6,1.7,0.9,2.8,0.9c1.1,0,2-0.2,2.6-0.7c0.6-0.5,0.9-0.9,1.1-1.3c0.2-0.4,0.2-1,0.2-1.6v-5.7H123v5.7c0,0.5-0.1,0.9-0.2,1.2
		c-0.1,0.3-0.3,0.6-0.7,1c-0.4,0.4-1,0.6-1.9,0.6c-0.9,0-1.5-0.2-1.9-0.6c-0.4-0.4-0.6-0.7-0.7-1c-0.1-0.3-0.2-0.7-0.2-1.2v-5.7
		H116.3L116.3,56.4z"/>
	<path fill="#1D1D1B" d="M118.9,55.7c-0.3,0-0.5-0.1-0.7-0.3c-0.2-0.2-0.3-0.4-0.3-0.7c0-0.3,0.1-0.5,0.3-0.7
		c0.2-0.2,0.4-0.3,0.7-0.3c0.3,0,0.5,0.1,0.7,0.3c0.2,0.2,0.3,0.4,0.3,0.7c0,0.3-0.1,0.5-0.3,0.7C119.4,55.6,119.2,55.7,118.9,55.7
		 M118.9,54.1c-0.2,0-0.4,0.1-0.5,0.2c-0.1,0.1-0.2,0.3-0.2,0.5c0,0.2,0.1,0.3,0.2,0.5c0.3,0.3,0.7,0.3,0.9,0
		c0.1-0.1,0.2-0.3,0.2-0.5c0-0.2-0.1-0.3-0.2-0.5C119.2,54.2,119.1,54.1,118.9,54.1"/>
	<path fill="#1D1D1B" d="M121.6,55.7c-0.3,0-0.5-0.1-0.7-0.3c-0.2-0.2-0.3-0.4-0.3-0.7c0-0.3,0.1-0.5,0.3-0.7
		c0.2-0.2,0.4-0.3,0.7-0.3c0.3,0,0.5,0.1,0.7,0.3c0.2,0.2,0.3,0.4,0.3,0.7c0,0.3-0.1,0.5-0.3,0.7C122.1,55.6,121.8,55.7,121.6,55.7
		 M121.6,54.1c-0.2,0-0.4,0.1-0.5,0.2c-0.1,0.1-0.2,0.3-0.2,0.5c0,0.2,0.1,0.3,0.2,0.5c0.3,0.3,0.7,0.3,0.9,0
		c0.1-0.1,0.2-0.3,0.2-0.5c0-0.2-0.1-0.3-0.2-0.5C121.9,54.2,121.8,54.1,121.6,54.1"/>
	<path fill="#1D1D1B" d="M134.8,65.9h-2.1l-0.3-0.4l-0.8-1.2c-0.7-1.1-1.2-1.9-1.6-2.1c-0.3-0.2-0.8-0.4-1.4-0.4v4.2h-1.7v-9.9h2.5
		c1,0,1.9,0.2,2.4,0.7c0.6,0.5,0.9,1.2,0.9,2.1c0,0.6-0.1,1.1-0.4,1.5c-0.2,0.4-0.6,0.6-1,0.8c0.1,0.1,0.3,0.2,0.4,0.3
		c0.2,0.2,0.3,0.4,0.5,0.6c0.2,0.2,0.4,0.5,0.6,0.8l0,0.1c0.2,0.3,0.3,0.5,0.3,0.6l0.7,1.1c0.1,0.1,0.2,0.3,0.3,0.4
		c0.1,0.1,0.2,0.3,0.4,0.5L134.8,65.9L134.8,65.9z M132.9,65.6h1.3c-0.1-0.1-0.2-0.2-0.2-0.3c-0.1-0.1-0.2-0.3-0.3-0.4l-0.2-0.4
		l-0.5-0.7c-0.1-0.1-0.2-0.3-0.4-0.5l0-0.1c-0.2-0.3-0.4-0.6-0.6-0.8c-0.2-0.2-0.3-0.4-0.5-0.6c-0.1-0.1-0.3-0.3-0.5-0.4l-0.2-0.2
		l0.3-0.1c0.5-0.2,0.8-0.4,1.1-0.8c0.2-0.4,0.4-0.8,0.4-1.3c0-0.8-0.3-1.4-0.8-1.9c-0.5-0.4-1.3-0.7-2.2-0.7h-2.2v9.3h1.1v-4.2h0.2
		c0.7,0,1.3,0.2,1.7,0.5c0.4,0.3,0.9,1,1.7,2.2L132.9,65.6L132.9,65.6z"/>
	<path fill="#1D1D1B" d="M129.4,60.5h-0.9v-3.1h1.1c0.5,0,1,0.1,1.3,0.4c0.3,0.3,0.5,0.7,0.5,1.1C131.4,59.6,131.1,60.5,129.4,60.5
		 M128.8,60.2h0.7c1.1,0,1.7-0.4,1.7-1.3c0-0.4-0.1-0.7-0.4-0.9c-0.3-0.2-0.6-0.3-1.1-0.3h-0.8V60.2L128.8,60.2z"/>
	<path fill="#1D1D1B" d="M138,65.9h-1.7v-9.9h1.7V65.9L138,65.9z M136.6,65.6h1.1v-9.3h-1.1V65.6L136.6,65.6z"/>
	<path fill="#1D1D1B" d="M149.8,65.9h-1.5l0-0.1l-5.9-7v7.1h-1.7v-9.9h1.5l5.9,7v-7h1.7V65.9L149.8,65.9z M148.5,65.6h1v-9.3h-1.1
		v7.5l-6.4-7.5h-1.1v9.3h1.1V58L148.5,65.6L148.5,65.6z"/>
	<path fill="#1D1D1B" d="M157.3,66c-1.5,0-2.8-0.5-3.7-1.4c-1-0.9-1.5-2.1-1.5-3.5c0-1.5,0.5-2.7,1.5-3.7c1-1,2.3-1.5,3.8-1.5
		c1.1,0,2.3,0.3,3.4,0.9l0.1,0v1.8l-0.2-0.1c-0.7-0.4-1.3-0.6-1.8-0.8c-0.5-0.1-1-0.2-1.6-0.2c-0.9,0-1.8,0.3-2.4,1
		c-0.7,0.7-1,1.5-1,2.4c0,1,0.3,1.8,1,2.5c0.7,0.7,1.5,1,2.6,1c0.5,0,1.2-0.1,1.9-0.4v-1.6h-1.8v-1.6h3.5v4.3l-0.1,0
		C159.6,65.7,158.4,66,157.3,66 M157.3,56.2c-1.4,0-2.6,0.5-3.6,1.4c-0.9,0.9-1.4,2.1-1.4,3.5c0,1.3,0.5,2.5,1.4,3.3
		c0.9,0.9,2.1,1.3,3.6,1.3c1.1,0,2.2-0.3,3.4-0.8v-3.8h-2.9v1h1.8v2.1l-0.1,0c-0.8,0.3-1.5,0.4-2.1,0.4c-1.1,0-2-0.4-2.8-1.1
		c-0.7-0.7-1.1-1.6-1.1-2.7c0-1,0.4-1.9,1.1-2.7c0.7-0.7,1.6-1.1,2.7-1.1c0.6,0,1.1,0.1,1.7,0.2c0.5,0.1,1,0.4,1.6,0.7V57
		C159.4,56.5,158.3,56.2,157.3,56.2"/>
	<path fill="#1D1D1B" d="M169.2,65.9h-5.8v-9.9h5.7v1.6h-3.9v2.5h3.8v1.6h-3.8v2.6h4.1V65.9L169.2,65.9z M163.7,65.6h5.2v-1h-4.1
		v-3.2h3.8v-1h-3.8v-3.1h3.9v-1h-5.1V65.6L163.7,65.6z"/>
	<path fill="#1D1D1B" d="M180.5,65.9h-1.5l0-0.1l-5.9-7v7.1h-1.7v-9.9h1.5l5.9,7v-7h1.7V65.9L180.5,65.9z M179.2,65.6h1v-9.3h-1.1
		v7.5l-6.4-7.5h-1.1v9.3h1.1V58L179.2,65.6L179.2,65.6z"/>
	<path fill="#1D1D1B" d="M164,80.4c0.4,0.3,1.1,0.4,2,0.4c0.4,0,0.8-0.1,1.1-0.2c0.4-0.1,0.7-0.3,0.9-0.5c0.3-0.2,0.5-0.5,0.6-0.8
		c0.2-0.3,0.2-0.7,0.2-1.1c0-0.3,0-0.6-0.1-0.8c-0.1-0.2-0.2-0.4-0.3-0.6c-0.1-0.2-0.3-0.3-0.5-0.5c-0.2-0.1-0.4-0.3-0.7-0.4
		l-0.9-0.5c-0.1-0.1-0.2-0.1-0.3-0.2c-0.1-0.1-0.2-0.1-0.3-0.2c-0.1-0.1-0.2-0.2-0.2-0.3c0-0.1-0.1-0.3-0.1-0.4
		c0-0.3,0.1-0.5,0.3-0.7c0.2-0.2,0.5-0.3,0.9-0.3c0.4,0,0.7,0,0.9,0.1c0.3,0.1,0.5,0.2,0.7,0.2l0.1-1.3c-0.1,0-0.3-0.1-0.6-0.2
		c-0.3-0.1-0.7-0.1-1.2-0.1c-0.4,0-0.7,0-1.1,0.2c-0.3,0.1-0.6,0.2-0.9,0.4c-0.3,0.2-0.4,0.4-0.6,0.7c-0.1,0.3-0.2,0.6-0.2,1
		c0,0.6,0.1,1,0.4,1.4c0.3,0.4,0.6,0.7,1,0.9l0.8,0.4c0.2,0.1,0.4,0.2,0.5,0.3c0.1,0.1,0.3,0.2,0.4,0.3c0.1,0.1,0.2,0.2,0.2,0.3
		c0,0.1,0.1,0.3,0.1,0.4c0,0.2,0,0.4-0.1,0.6c-0.1,0.2-0.2,0.3-0.3,0.4c-0.1,0.1-0.3,0.2-0.4,0.2c-0.2,0.1-0.3,0.1-0.5,0.1
		c-0.4,0-0.8-0.1-1.1-0.2c-0.3-0.1-0.6-0.2-0.7-0.3L164,80.4L164,80.4z M155.7,80.7h2.3c0.6,0,1.2-0.1,1.7-0.3
		c0.5-0.2,0.9-0.4,1.3-0.8c0.4-0.4,0.7-0.8,0.9-1.4c0.2-0.5,0.3-1.2,0.3-1.9c0-1.4-0.3-2.5-1-3.2c-0.7-0.7-1.7-1.1-3.1-1.1h-2.3
		V80.7L155.7,80.7z M157.3,73.2h0.5c0.4,0,0.8,0.1,1.2,0.2c0.3,0.1,0.6,0.4,0.8,0.6c0.2,0.3,0.4,0.6,0.5,1c0.1,0.4,0.2,0.8,0.2,1.3
		c0,0.5-0.1,0.9-0.2,1.3c-0.1,0.4-0.3,0.7-0.5,1c-0.2,0.3-0.5,0.5-0.8,0.6c-0.3,0.1-0.7,0.2-1.2,0.2h-0.5V73.2L157.3,73.2z
		 M147.1,80.7h1.4v-6.8h0l2.9,6.8h1.9V72h-1.4v6.8h0L149,72h-1.9V80.7L147.1,80.7z M139.9,74.8c0.1-0.4,0.2-0.7,0.4-1
		c0.2-0.3,0.4-0.4,0.6-0.6c0.2-0.1,0.5-0.2,0.7-0.2c0.2,0,0.5,0.1,0.7,0.2c0.2,0.1,0.4,0.3,0.6,0.6c0.2,0.3,0.3,0.6,0.4,1
		c0.1,0.4,0.1,0.9,0.1,1.5c0,0.6,0,1.1-0.1,1.5c-0.1,0.4-0.2,0.8-0.4,1c-0.2,0.3-0.4,0.4-0.6,0.6c-0.2,0.1-0.5,0.2-0.7,0.2
		c-0.3,0-0.5-0.1-0.7-0.2c-0.2-0.1-0.4-0.3-0.6-0.6c-0.2-0.3-0.3-0.6-0.4-1c-0.1-0.4-0.1-0.9-0.1-1.5
		C139.7,75.7,139.8,75.2,139.9,74.8 M138.4,78.3c0.2,0.6,0.4,1,0.8,1.4c0.3,0.4,0.7,0.6,1.1,0.8c0.4,0.2,0.8,0.3,1.3,0.3
		c0.4,0,0.9-0.1,1.3-0.3c0.4-0.2,0.8-0.4,1.1-0.8c0.3-0.4,0.6-0.8,0.8-1.4c0.2-0.6,0.3-1.2,0.3-2c0-0.8-0.1-1.4-0.3-2
		c-0.2-0.6-0.5-1-0.8-1.4c-0.3-0.4-0.7-0.6-1.1-0.8c-0.4-0.2-0.8-0.3-1.3-0.3c-0.4,0-0.9,0.1-1.3,0.3c-0.4,0.2-0.8,0.4-1.1,0.8
		c-0.3,0.4-0.6,0.8-0.8,1.4c-0.2,0.6-0.3,1.2-0.3,2C138.1,77.1,138.2,77.8,138.4,78.3 M132.1,80.7h1.6v-3.8h2.7v-1.3h-2.7v-2.4h2.8
		V72h-4.4V80.7L132.1,80.7z M125.9,80.7h4.4v-1.3h-2.9V72h-1.6V80.7L125.9,80.7z M119.4,77.4l1.2-4h0l1.1,4H119.4L119.4,77.4z
		 M122.7,80.7h1.6l-2.8-8.7h-1.7l-2.9,8.7h1.6l0.6-2.1h3L122.7,80.7L122.7,80.7z M113.7,80.7h1.6V72h-1.6V80.7L113.7,80.7z
		 M106.4,80.7h5.3v-1.3h-3.5l3.5-6.1V72h-5.2v1.3h3.3l-3.4,6V80.7L106.4,80.7z M99.6,74.8c0.1-0.4,0.2-0.7,0.4-1
		c0.2-0.3,0.4-0.4,0.6-0.6c0.2-0.1,0.5-0.2,0.7-0.2c0.2,0,0.5,0.1,0.7,0.2c0.2,0.1,0.4,0.3,0.6,0.6c0.2,0.3,0.3,0.6,0.4,1
		c0.1,0.4,0.1,0.9,0.1,1.5c0,0.6,0,1.1-0.1,1.5c-0.1,0.4-0.2,0.8-0.4,1c-0.2,0.3-0.3,0.4-0.6,0.6c-0.2,0.1-0.5,0.2-0.7,0.2
		c-0.2,0-0.5-0.1-0.7-0.2c-0.2-0.1-0.4-0.3-0.6-0.6c-0.2-0.3-0.3-0.6-0.4-1c-0.1-0.4-0.1-0.9-0.1-1.5C99.4,75.7,99.5,75.2,99.6,74.8
		 M98.1,78.3c0.2,0.6,0.4,1,0.8,1.4c0.3,0.4,0.7,0.6,1.1,0.8c0.4,0.2,0.8,0.3,1.3,0.3c0.4,0,0.9-0.1,1.3-0.3
		c0.4-0.2,0.8-0.4,1.1-0.8c0.3-0.4,0.6-0.8,0.8-1.4c0.2-0.6,0.3-1.2,0.3-2c0-0.8-0.1-1.4-0.3-2c-0.2-0.6-0.4-1-0.8-1.4
		c-0.3-0.4-0.7-0.6-1.1-0.8c-0.4-0.2-0.8-0.3-1.3-0.3c-0.5,0-0.9,0.1-1.3,0.3c-0.4,0.2-0.8,0.4-1.1,0.8c-0.3,0.4-0.6,0.8-0.8,1.4
		c-0.2,0.6-0.3,1.2-0.3,2C97.8,77.1,97.9,77.8,98.1,78.3 M91.1,80.4c0.4,0.3,1.1,0.4,2,0.4c0.4,0,0.8-0.1,1.1-0.2
		c0.3-0.1,0.7-0.3,0.9-0.5c0.3-0.2,0.5-0.5,0.6-0.8c0.1-0.3,0.2-0.7,0.2-1.1c0-0.3,0-0.6-0.1-0.8c-0.1-0.2-0.2-0.4-0.3-0.6
		c-0.1-0.2-0.3-0.3-0.5-0.5c-0.2-0.1-0.4-0.3-0.7-0.4l-0.9-0.5c-0.1-0.1-0.2-0.1-0.3-0.2C93.1,75,93,75,92.9,74.9
		c-0.1-0.1-0.2-0.2-0.2-0.3c0-0.1-0.1-0.3-0.1-0.4c0-0.3,0.1-0.5,0.3-0.7c0.2-0.2,0.5-0.3,0.9-0.3c0.4,0,0.7,0,0.9,0.1
		c0.3,0.1,0.5,0.2,0.7,0.2l0.1-1.3c-0.1,0-0.3-0.1-0.7-0.2c-0.3-0.1-0.7-0.1-1.2-0.1c-0.4,0-0.7,0-1,0.2c-0.3,0.1-0.6,0.2-0.9,0.4
		c-0.2,0.2-0.4,0.4-0.6,0.7c-0.1,0.3-0.2,0.6-0.2,1c0,0.6,0.1,1,0.4,1.4c0.3,0.4,0.6,0.7,1,0.9l0.8,0.4c0.2,0.1,0.4,0.2,0.5,0.3
		c0.1,0.1,0.3,0.2,0.4,0.3c0.1,0.1,0.2,0.2,0.2,0.3c0,0.1,0.1,0.3,0.1,0.4c0,0.2,0,0.4-0.1,0.6c-0.1,0.2-0.2,0.3-0.3,0.4
		c-0.1,0.1-0.3,0.2-0.4,0.2c-0.2,0.1-0.3,0.1-0.5,0.1c-0.4,0-0.8-0.1-1.1-0.2c-0.3-0.1-0.6-0.2-0.7-0.3L91.1,80.4L91.1,80.4z
		 M79.9,80.7h1.6v-3.7h0.4c0.3,0,0.5,0.1,0.7,0.2c0.2,0.1,0.4,0.4,0.5,0.7l0.9,2.8h1.7l-1.1-3.3c-0.1-0.2-0.1-0.4-0.2-0.5
		c-0.1-0.1-0.2-0.2-0.2-0.3c-0.1-0.1-0.2-0.1-0.2-0.2c-0.1,0-0.2,0-0.3-0.1v0c0.5-0.1,0.9-0.3,1.2-0.6c0.3-0.4,0.5-0.8,0.5-1.4
		c0-0.4-0.1-0.7-0.2-1c-0.1-0.3-0.3-0.5-0.5-0.7c-0.2-0.2-0.5-0.3-0.8-0.4C83.3,72,83,72,82.6,72h-2.7V80.7L79.9,80.7z M81.5,75.8
		v-2.6h0.6c0.4,0,0.8,0.1,1,0.2c0.3,0.2,0.4,0.5,0.4,1c0,0.4-0.1,0.8-0.4,1c-0.3,0.2-0.6,0.3-1,0.3H81.5L81.5,75.8z M73.1,80.7h4.7
		v-1.3h-3.1v-2.6h2.8v-1.3h-2.8v-2.3h3V72h-4.6V80.7L73.1,80.7z M64.9,80.7h1.6v-3.8h2.6v3.8h1.6V72h-1.6v3.5h-2.6V72h-1.6V80.7
		L64.9,80.7z M62.8,79c-0.2,0.1-0.4,0.2-0.7,0.3c-0.3,0.1-0.6,0.1-1,0.1c-0.3,0-0.6-0.1-0.9-0.2c-0.3-0.1-0.6-0.3-0.8-0.6
		c-0.2-0.3-0.4-0.6-0.5-1c-0.1-0.4-0.2-0.9-0.2-1.4c0-0.6,0.1-1,0.2-1.4c0.1-0.4,0.3-0.7,0.5-1c0.2-0.3,0.5-0.4,0.8-0.6
		c0.3-0.1,0.6-0.2,0.9-0.2c0.4,0,0.7,0.1,1,0.2c0.3,0.1,0.5,0.2,0.6,0.3l0.1-1.4c-0.2-0.1-0.4-0.1-0.8-0.2c-0.3-0.1-0.7-0.1-1.2-0.1
		c-0.6,0-1.2,0.1-1.7,0.3c-0.5,0.2-0.9,0.5-1.2,0.9c-0.3,0.4-0.6,0.9-0.7,1.4c-0.2,0.5-0.3,1.1-0.3,1.8c0,0.6,0.1,1.2,0.3,1.8
		c0.2,0.5,0.4,1,0.7,1.4c0.3,0.4,0.8,0.7,1.2,0.9c0.5,0.2,1.1,0.3,1.7,0.3c0.4,0,0.8,0,1.1-0.1c0.3-0.1,0.6-0.1,0.8-0.2L62.8,79
		L62.8,79z M50.4,80.4c0.4,0.3,1.1,0.4,2,0.4c0.4,0,0.8-0.1,1.1-0.2c0.4-0.1,0.7-0.3,0.9-0.5c0.3-0.2,0.5-0.5,0.6-0.8
		c0.2-0.3,0.2-0.7,0.2-1.1c0-0.3,0-0.6-0.1-0.8c-0.1-0.2-0.2-0.4-0.3-0.6c-0.1-0.2-0.3-0.3-0.5-0.5c-0.2-0.1-0.4-0.3-0.7-0.4
		l-0.9-0.5c-0.1-0.1-0.2-0.1-0.3-0.2c-0.1-0.1-0.2-0.1-0.3-0.2c-0.1-0.1-0.2-0.2-0.2-0.3c0-0.1-0.1-0.3-0.1-0.4
		c0-0.3,0.1-0.5,0.3-0.7c0.2-0.2,0.5-0.3,0.9-0.3c0.4,0,0.7,0,1,0.1c0.3,0.1,0.5,0.2,0.7,0.2l0.1-1.3c-0.1,0-0.3-0.1-0.6-0.2
		c-0.3-0.1-0.7-0.1-1.2-0.1c-0.4,0-0.7,0-1,0.2c-0.3,0.1-0.6,0.2-0.9,0.4c-0.3,0.2-0.4,0.4-0.6,0.7c-0.1,0.3-0.2,0.6-0.2,1
		c0,0.6,0.1,1,0.4,1.4c0.3,0.4,0.6,0.7,1,0.9l0.8,0.4c0.2,0.1,0.4,0.2,0.5,0.3c0.1,0.1,0.3,0.2,0.4,0.3c0.1,0.1,0.2,0.2,0.2,0.3
		c0,0.1,0.1,0.3,0.1,0.4c0,0.2,0,0.4-0.1,0.6c-0.1,0.2-0.2,0.3-0.3,0.4c-0.1,0.1-0.3,0.2-0.4,0.2c-0.2,0.1-0.3,0.1-0.5,0.1
		c-0.4,0-0.8-0.1-1.1-0.2c-0.3-0.1-0.6-0.2-0.7-0.3L50.4,80.4L50.4,80.4z M46.5,80.7h1.6V72h-1.6V80.7L46.5,80.7z M39.5,71.2h1.2
		v-1.4h-1.2V71.2L39.5,71.2z M41.6,71.2h1.2v-1.4h-1.2V71.2L41.6,71.2z M40,77.4l1.2-4h0l1.1,4H40L40,77.4z M43.2,80.7h1.6L42.1,72
		h-1.7l-2.9,8.7H39l0.6-2.1h3L43.2,80.7L43.2,80.7z M32.7,76.1v-2.8h0.6c0.5,0,0.9,0.1,1.1,0.3c0.2,0.2,0.3,0.6,0.3,1.1
		c0,0.5-0.1,0.8-0.3,1.1c-0.2,0.2-0.6,0.4-1.1,0.4H32.7L32.7,76.1z M31.1,80.7h1.6v-3.4h0.9c0.9,0,1.6-0.2,2-0.7
		c0.5-0.5,0.7-1.1,0.7-1.9c0-0.8-0.2-1.5-0.7-1.9c-0.4-0.5-1.1-0.7-2-0.7h-2.5V80.7L31.1,80.7z M24,74.8c0.1-0.4,0.2-0.7,0.4-1
		c0.2-0.3,0.4-0.4,0.6-0.6c0.2-0.1,0.5-0.2,0.7-0.2c0.3,0,0.5,0.1,0.7,0.2c0.2,0.1,0.4,0.3,0.6,0.6c0.2,0.3,0.3,0.6,0.4,1
		c0.1,0.4,0.1,0.9,0.1,1.5c0,0.6,0,1.1-0.1,1.5c-0.1,0.4-0.2,0.8-0.4,1c-0.2,0.3-0.4,0.4-0.6,0.6c-0.2,0.1-0.5,0.2-0.7,0.2
		c-0.2,0-0.5-0.1-0.7-0.2c-0.2-0.1-0.4-0.3-0.6-0.6c-0.2-0.3-0.3-0.6-0.4-1c-0.1-0.4-0.1-0.9-0.1-1.5C23.9,75.7,23.9,75.2,24,74.8
		 M22.5,78.3c0.2,0.6,0.4,1,0.8,1.4c0.3,0.4,0.7,0.6,1.1,0.8c0.4,0.2,0.9,0.3,1.3,0.3c0.4,0,0.9-0.1,1.3-0.3
		c0.4-0.2,0.8-0.4,1.1-0.8c0.3-0.4,0.6-0.8,0.8-1.4c0.2-0.6,0.3-1.2,0.3-2c0-0.8-0.1-1.4-0.3-2c-0.2-0.6-0.4-1-0.8-1.4
		c-0.3-0.4-0.7-0.6-1.1-0.8c-0.4-0.2-0.8-0.3-1.3-0.3c-0.4,0-0.9,0.1-1.3,0.3c-0.4,0.2-0.8,0.4-1.1,0.8c-0.3,0.4-0.6,0.8-0.8,1.4
		c-0.2,0.6-0.3,1.2-0.3,2C22.2,77.1,22.3,77.8,22.5,78.3 M15,80.7h1.6v-3.7h0.4c0.3,0,0.5,0.1,0.7,0.2c0.2,0.1,0.4,0.4,0.5,0.7
		l0.9,2.8h1.7l-1.1-3.3c-0.1-0.2-0.1-0.4-0.2-0.5c-0.1-0.1-0.2-0.2-0.2-0.3c-0.1-0.1-0.2-0.1-0.2-0.2c-0.1,0-0.2,0-0.2-0.1v0
		c0.5-0.1,0.9-0.3,1.2-0.6c0.3-0.4,0.5-0.8,0.5-1.4c0-0.4-0.1-0.7-0.2-1c-0.1-0.3-0.3-0.5-0.5-0.7c-0.2-0.2-0.5-0.3-0.8-0.4
		C18.4,72,18,72,17.7,72H15V80.7L15,80.7z M16.6,75.8v-2.6h0.6c0.4,0,0.8,0.1,1,0.2c0.3,0.2,0.4,0.5,0.4,1c0,0.4-0.1,0.8-0.4,1
		c-0.3,0.2-0.6,0.3-1,0.3H16.6L16.6,75.8z M6.8,72v5.6c0,0.6,0.1,1.1,0.2,1.5c0.2,0.4,0.4,0.7,0.6,1c0.3,0.3,0.6,0.4,0.9,0.6
		c0.4,0.1,0.7,0.2,1.2,0.2c0.4,0,0.8-0.1,1.1-0.2c0.4-0.1,0.7-0.3,0.9-0.6c0.3-0.3,0.5-0.6,0.6-1c0.2-0.4,0.2-0.9,0.2-1.5V72h-1.6
		v5.6c0,0.7-0.1,1.2-0.3,1.5c-0.2,0.3-0.6,0.4-1,0.4c-0.5,0-0.8-0.1-1-0.4c-0.2-0.3-0.3-0.8-0.3-1.5V72H6.8L6.8,72z M0,80.7h4.7
		v-1.3H1.6v-2.6h2.8v-1.3H1.6v-2.3h3V72H0V80.7L0,80.7z"/>
	<path fill="#1D1D1B" d="M109.4,0.7v47.4h71.1V0.7H109.4L109.4,0.7z M156.6,16.5l0.6-1.8l0.6,1.8l1.9,0l-1.5,1.1l0.6,1.8l-1.5-1.1
		l-1.5,1.1l0.6-1.8l-1.5-1.1L156.6,16.5L156.6,16.5z M144.4,9.4l0.6-1.8l0.6,1.8l1.9,0l-1.5,1.1l0.6,1.8l-1.5-1.1l-1.5,1.1l0.6-1.8
		l-1.5-1.1L144.4,9.4L144.4,9.4z M128.2,23.6l1.9,0l0.6-1.8l0.6,1.8l1.9,0l-1.5,1.1l0.6,1.8l-1.5-1.1l-1.5,1.1l0.6-1.8L128.2,23.6
		L128.2,23.6z M134.1,33.6l-1.5-1.1l-1.5,1.1l0.6-1.8l-1.5-1.1l1.9,0l0.6-1.8l0.6,1.8l1.9,0l-1.5,1.1L134.1,33.6L134.1,33.6z
		 M133.6,17.7l0.6,1.8l-1.5-1.1l-1.5,1.1l0.6-1.8l-1.5-1.1l1.9,0l0.6-1.8l0.6,1.8l1.9,0L133.6,17.7L133.6,17.7z M139.3,38.8
		l-1.5-1.1l-1.5,1.1l0.6-1.8l-1.5-1.1l1.9,0l0.6-1.8l0.6,1.8l1.9,0l-1.5,1.1L139.3,38.8L139.3,38.8z M138.8,12.5l0.5,1.8l-1.5-1.1
		l-1.5,1.1l0.6-1.8l-1.5-1.1l1.9,0l0.6-1.8l0.6,1.8l1.9,0L138.8,12.5L138.8,12.5z M146.5,40.7l-1.5-1.1l-1.5,1.1l0.5-1.8l-1.5-1.1
		l1.9,0L145,36l0.6,1.8l1.9,0l-1.5,1.1L146.5,40.7L146.5,40.7z M153.5,38.8l-1.5-1.1l-1.5,1.1L151,37l-1.5-1.1l1.9,0l0.6-1.8
		l0.6,1.8l1.9,0l-1.5,1.1L153.5,38.8L153.5,38.8z M152.9,12.5l0.6,1.8l-1.5-1.1l-1.5,1.1l0.6-1.8l-1.5-1.1l1.9,0l0.6-1.8l0.6,1.8
		l1.9,0L152.9,12.5L152.9,12.5z M158.7,33.6l-1.5-1.1l-1.5,1.1l0.6-1.8l-1.5-1.1l1.9,0l0.6-1.8l0.6,1.8l1.9,0l-1.5,1.1L158.7,33.6
		L158.7,33.6z M160.6,26.5l-1.5-1.1l-1.5,1.1l0.6-1.8l-1.5-1.1l1.9,0l0.6-1.8l0.6,1.8l1.9,0l-1.5,1.1L160.6,26.5L160.6,26.5z"/>
</g>
</svg>
