<?xml version="1.0" encoding="utf-8"?>
<!-- Generator: Adobe Illustrator 18.1.1, SVG Export Plug-In . SVG Version: 6.00 Build 0)  -->
<!DOCTYPE svg PUBLIC "-//W3C//DTD SVG 1.1//EN" "http://www.w3.org/Graphics/SVG/1.1/DTD/svg11.dtd">
<svg version="1.1" id="Layer_1" xmlns="http://www.w3.org/2000/svg" xmlns:xlink="http://www.w3.org/1999/xlink" x="0px" y="0px"
	 viewBox="-402.5 249.5 49.6 31.9" enable-background="new -402.5 249.5 49.6 31.9" xml:space="preserve">
<g>
	<path fill="#FFFFFF" d="M-353.4,264.5l-23.7-14.8c-0.3-0.2-0.8-0.2-1.1,0c-0.4,0.2-0.6,0.6-0.6,1v12.8l-22-13.8
		c-0.3-0.2-0.8-0.2-1.1,0c-0.4,0.2-0.6,0.6-0.6,1v29.6c0,0.4,0.2,0.8,0.6,1c0.2,0.1,0.4,0.1,0.5,0.1c0.2,0,0.4-0.1,0.6-0.2l22-13.8
		v12.8c0,0.4,0.2,0.8,0.6,1c0.2,0.1,0.4,0.1,0.5,0.1c0.2,0,0.4-0.1,0.6-0.2l23.7-14.8c0.3-0.2,0.5-0.6,0.5-0.9
		S-353.1,264.7-353.4,264.5z M-400.3,278.3v-25.6l20.5,12.8L-400.3,278.3z M-376.6,278.3v-25.6l20.5,12.8L-376.6,278.3z"/>
</g>
</svg>
