<?xml version="1.0" encoding="utf-8"?>
<!-- Generator: Adobe Illustrator 18.1.1, SVG Export Plug-In . SVG Version: 6.00 Build 0)  -->
<!DOCTYPE svg PUBLIC "-//W3C//DTD SVG 1.1//EN" "http://www.w3.org/Graphics/SVG/1.1/DTD/svg11.dtd">
<svg version="1.1" id="Layer_1" xmlns="http://www.w3.org/2000/svg" xmlns:xlink="http://www.w3.org/1999/xlink" x="0px" y="0px"
	 viewBox="-402.5 249.5 49.6 31.9" enable-background="new -402.5 249.5 49.6 31.9" xml:space="preserve">
<g>
	<path fill="#FFFFFF" d="M-402,266.4l23.7,14.8c0.3,0.2,0.8,0.2,1.1,0c0.4-0.2,0.6-0.6,0.6-1v-12.8l22,13.8c0.3,0.2,0.8,0.2,1.1,0
		c0.4-0.2,0.6-0.6,0.6-1v-29.6c0-0.4-0.2-0.8-0.6-1c-0.2-0.1-0.4-0.1-0.5-0.1c-0.2,0-0.4,0.1-0.6,0.2l-22,13.8v-12.8
		c0-0.4-0.2-0.8-0.6-1c-0.2-0.1-0.4-0.1-0.5-0.1c-0.2,0-0.4,0.1-0.6,0.2l-23.7,14.8c-0.3,0.2-0.5,0.6-0.5,0.9
		S-402.3,266.2-402,266.4z M-355.1,252.6v25.6l-20.5-12.8L-355.1,252.6z M-378.8,252.6v25.6l-20.5-12.8L-378.8,252.6z"/>
</g>
</svg>
